<!-- whatsapp.svg -->
<svg width="48" height="48" viewBox="0 0 24 24" fill="#F29522" xmlns="http://www.w3.org/2000/svg">
  <path d="M12 2a10 10 0 0 0-8.5 15.65L2 22l4.43-1.44A10 10 0 1 0 12 2zm5.36 14.28c-.3.85-1.73 1.64-2.38 1.75-.61.11-1.36.16-2.2-.14-.5-.17-1.13-.38-1.96-.75-3.44-1.5-5.68-4.82-5.9-5.05-.22-.23-1.41-1.88-1.41-3.59s.89-2.56 1.2-2.73c.31-.17.69-.25 1.1-.16.16.04.35.27.51.54.16.27.7 1.23.77 1.32.07.09.11.19.02.32-.17.26-.32.54-.45.72-.09.13-.19.3-.08.51.11.21.49.82 1.06 1.34.73.65 1.33.86 1.53.96.2.1.31.08.43-.05.12-.13.5-.6.63-.81.13-.21.27-.17.43-.1.16.07 1.03.49 1.21.58.18.09.3.13.34.2.04.07.04.41-.08.8z"></path>
</svg>
